<svg width="48" height="22" viewBox="0 0 48 22" fill="none" xmlns="http://www.w3.org/2000/svg">
<path d="M35.1477 18.5938C33.8777 19.8471 31.7967 19.8766 30.4808 18.6675L25.7067 14.3324C25.217 13.8753 24.4213 13.89 23.9317 14.3471C23.4267 14.8337 23.442 15.6152 23.947 16.0871L28.6905 20.4074L28.7058 20.4222C29.8381 21.4838 31.2917 21.9999 32.7607 21.9999C34.2755 21.9999 35.8057 21.4249 36.938 20.3042L40.3808 16.8833L37.7031 16.0428L35.1477 18.5938Z" fill="#F63B70"/>
<path d="M30.634 18.815L24.7429 13.4182L22.9067 15.0844L28.7366 20.4222L30.634 18.815Z" fill="url(#paint0_linear_304_25)"/>
<path d="M47.7409 6.73858C47.6797 4.93966 46.9146 3.25869 45.5681 1.99059C44.2215 0.722497 42.4466 0.0147225 40.5798 -2.28281e-05C38.6212 -0.0147681 36.8003 0.707752 35.4079 2.03483L18.0253 18.5496C16.7553 19.7587 14.7508 19.7734 13.4502 18.6086L4.42227 10.5871L2.7085 12.3713L11.7364 20.378C14.0316 22.4423 17.5663 22.3981 19.8003 20.2748L37.1828 3.76003C38.0703 2.9048 39.2486 2.43295 40.5033 2.43295C40.5186 2.43295 40.5339 2.43295 40.5492 2.43295C41.758 2.4477 42.9056 2.9048 43.7778 3.73054C44.65 4.55628 45.1549 5.64743 45.2008 6.81231C45.2008 6.85655 45.2008 6.90078 45.2008 6.94502C45.2008 8.02142 44.7571 9.0536 43.9461 9.86459L37.6113 16.1608L40.2279 17.0603L45.767 11.5603C47.0523 10.2922 47.7409 8.64073 47.7409 6.93027C47.7409 6.87129 47.7409 6.79756 47.7409 6.73858Z" fill="url(#paint1_linear_304_25)"/>
<path d="M4.42227 10.5872L2.7085 12.3713L10.7265 19.5376L13.037 18.2547L4.42227 10.5872Z" fill="url(#paint2_linear_304_25)"/>
<path d="M13.8481 7.0188C13.8328 7.0188 13.8328 7.0188 13.8481 7.0188L13.2666 7.57912L13.8481 7.0188Z" fill="url(#paint3_linear_304_25)"/>
<path d="M29.0267 2.78669C27.8485 1.31216 26.0888 0.353713 24.1761 0.206259C24.1149 0.206259 24.069 0.191514 24.0078 0.191514C22.1563 0.088297 20.3201 0.751836 19.0042 2.00519L16.3723 4.57087L16.1887 4.71832L13.8323 7.01859L13.2508 7.57891L10.8179 9.93816C9.80798 10.8524 8.44614 11.4569 7.34443 11.4864C7.29853 11.4864 7.25262 11.4864 7.22202 11.4864C5.95199 11.4864 4.77378 11.0146 3.88629 10.1446C2.9988 9.27462 2.52445 8.12449 2.53975 6.90063C2.55505 5.73575 3.0447 4.62985 3.90159 3.78937C4.75847 2.94889 5.90609 2.47704 7.11491 2.44755C7.16081 2.44755 7.19142 2.44755 7.23732 2.44755C8.64506 2.44755 9.94569 3.03736 10.8485 4.08428L11.1239 4.39393C11.5524 4.88052 11.9808 5.39661 12.4398 5.8832L12.6388 6.10438C12.9907 6.48776 13.4038 6.79741 13.8629 7.01859L16.1887 4.71832L16.1581 4.74781C15.9439 4.95425 15.7756 4.98374 15.4848 4.96899C15.1482 4.95425 14.7963 4.79205 14.5361 4.49714L14.3066 4.27596C13.8782 3.80411 13.4497 3.30277 13.0366 2.83092L12.7765 2.50653C11.3534 0.869798 9.25712 -0.0444108 7.0384 -0.000174829C5.17162 0.0440611 3.41194 0.781327 2.09601 2.06417C0.764775 3.36176 0.0303014 5.05747 -0.00030163 6.85639C-0.0309047 8.72905 0.703569 10.4985 2.08071 11.8403C3.44254 13.1821 5.27873 13.9194 7.22202 13.9194C7.28323 13.9194 7.35973 13.9194 7.42094 13.9194C9.13471 13.8752 11.1086 13.0199 12.5776 11.7076L12.5929 11.6929L20.7945 3.74513C21.6055 2.97838 22.7378 2.56551 23.8701 2.62449C24.8188 2.68347 25.7369 3.08159 26.456 3.74513L27.4659 4.79205C27.9403 5.27865 28.736 5.30814 29.2562 4.85103C29.7612 4.39393 29.7918 3.62717 29.3174 3.12583L29.0267 2.78669Z" fill="url(#paint4_linear_304_25)"/>
<path d="M16.1432 4.74806C15.929 4.95449 15.7606 4.98398 15.4699 4.96924C15.1333 4.95449 14.7813 4.79229 14.5212 4.49739L14.307 4.27621C13.8786 3.80436 13.4501 3.30302 13.037 2.83117L12.7768 2.50677C11.3538 0.870042 9.25749 -0.0441666 7.03877 6.93116e-05C6.64093 0.0148146 6.22779 0.0443052 5.84525 0.118032L5.56982 2.71321C6.05947 2.53626 6.56442 2.43304 7.09998 2.43304C7.14588 2.43304 7.17648 2.43304 7.22239 2.43304C8.63013 2.43304 9.93076 3.02286 10.8335 4.06977L11.109 4.37943C11.5374 4.86602 11.9659 5.38211 12.4249 5.8687L12.6238 6.08988C12.9758 6.47326 13.3889 6.78291 13.8479 7.00409L16.1891 4.71857L16.1432 4.74806Z" fill="url(#paint5_linear_304_25)"/>
<defs>
<linearGradient id="paint0_linear_304_25" x1="29.2921" y1="19.3235" x2="24.7236" y2="14.7037" gradientUnits="userSpaceOnUse">
<stop offset="0.0026455" stop-color="#7600FF" stop-opacity="0"/>
<stop offset="0.478" stop-color="#6C00DB" stop-opacity="0.4773"/>
<stop offset="0.9986" stop-color="#5F00B0"/>
</linearGradient>
<linearGradient id="paint1_linear_304_25" x1="25.3118" y1="10.3563" x2="39.5967" y2="13.5275" gradientUnits="userSpaceOnUse">
<stop stop-color="#B419FB"/>
<stop offset="0.2829" stop-color="#C522D7"/>
<stop offset="0.9082" stop-color="#F0387E"/>
<stop offset="0.9986" stop-color="#F63B70"/>
</linearGradient>
<linearGradient id="paint2_linear_304_25" x1="8.88895" y1="19.2239" x2="7.68526" y2="14.2275" gradientUnits="userSpaceOnUse">
<stop offset="0.0026455" stop-color="#7600FF" stop-opacity="0"/>
<stop offset="0.478" stop-color="#6C00DB" stop-opacity="0.4773"/>
<stop offset="0.9986" stop-color="#5F00B0"/>
</linearGradient>
<linearGradient id="paint3_linear_304_25" x1="13.2619" y1="7.29573" x2="13.8413" y2="7.29573" gradientUnits="userSpaceOnUse">
<stop stop-color="#3CDEDB"/>
<stop offset="1" stop-color="#BFF1C5"/>
</linearGradient>
<linearGradient id="paint4_linear_304_25" x1="-0.00030163" y1="6.9583" x2="29.6529" y2="6.9583" gradientUnits="userSpaceOnUse">
<stop offset="0.000702712" stop-color="#F43581"/>
<stop offset="1" stop-color="#FF6E00"/>
</linearGradient>
<linearGradient id="paint5_linear_304_25" x1="8.47809" y1="-0.465175" x2="13.3036" y2="8.57473" gradientUnits="userSpaceOnUse">
<stop offset="0.0026455" stop-color="#BD00FF" stop-opacity="0"/>
<stop offset="0.4678" stop-color="#AD00DB" stop-opacity="0.4664"/>
<stop offset="1" stop-color="#9800AE"/>
</linearGradient>
</defs>
</svg>
